<svg width="33" height="33" viewBox="0 0 33 33" fill="none" xmlns="http://www.w3.org/2000/svg">
<path d="M24.7219 5.88477H18.8419C17.8036 5.88477 16.9619 6.72647 16.9619 7.76477V11.2348C16.9619 12.2731 17.8036 13.1148 18.8419 13.1148H24.7219C25.7602 13.1148 26.6019 12.2731 26.6019 11.2348V7.76477C26.6019 6.72647 25.7602 5.88477 24.7219 5.88477Z" fill=""/>
<path d="M24.7219 14.834H18.8419C17.8036 14.834 16.9619 15.6757 16.9619 16.714V25.004C16.9619 26.0423 17.8036 26.884 18.8419 26.884H24.7219C25.7602 26.884 26.6019 26.0423 26.6019 25.004V16.714C26.6019 15.6757 25.7602 14.834 24.7219 14.834Z" fill=""/>
<path d="M13.3616 19.6543H7.48156C6.44327 19.6543 5.60156 20.496 5.60156 21.5343V25.0043C5.60156 26.0426 6.44327 26.8843 7.48156 26.8843H13.3616C14.3999 26.8843 15.2416 26.0426 15.2416 25.0043V21.5343C15.2416 20.496 14.3999 19.6543 13.3616 19.6543Z" fill=""/>
<path d="M13.3616 5.88477H7.48156C6.44327 5.88477 5.60156 6.72647 5.60156 7.76477V16.0548C5.60156 17.0931 6.44327 17.9348 7.48156 17.9348H13.3616C14.3999 17.9348 15.2416 17.0931 15.2416 16.0548V7.76477C15.2416 6.72647 14.3999 5.88477 13.3616 5.88477Z" fill=""/>
</svg>
