<svg width="24" height="17" viewBox="0 0 24 17" fill="none" xmlns="http://www.w3.org/2000/svg">
<path d="M2.21156 0.125C1.78456 0.125 1.37505 0.294625 1.07312 0.596559C0.771187 0.898492 0.601563 1.308 0.601562 1.735V12.055L3.10156 4.705C3.24946 4.19447 3.49763 3.71853 3.83156 3.305C4.03653 3.06731 4.28957 2.87578 4.57399 2.74305C4.8584 2.61033 5.16773 2.53942 5.48156 2.535H19.9016V1.735C19.9029 1.52405 19.8625 1.31491 19.7827 1.11964C19.7028 0.924359 19.5852 0.746794 19.4365 0.597159C19.2878 0.447525 19.111 0.328775 18.9162 0.247743C18.7214 0.166711 18.5125 0.124996 18.3016 0.125H2.21156ZM5.86156 3.775C4.96156 3.775 4.53156 4.535 4.25156 5.385L1.03156 15.035C0.751562 15.885 1.75156 16.645 2.64156 16.645H18.7316C19.6216 16.645 20.0516 15.885 20.3316 15.035L23.5516 5.385C23.8316 4.535 22.8316 3.775 21.9416 3.775H5.86156Z" fill=""/>
</svg>
