<svg width="17" height="27" viewBox="0 0 17 27" fill="none" xmlns="http://www.w3.org/2000/svg">
<path d="M13.1017 8.65563H11.7317V2.06562C11.7291 1.58904 11.5386 1.13273 11.2016 0.795734C10.8646 0.458736 10.4083 0.268251 9.93172 0.265625H6.70172C6.2234 0.265618 5.76453 0.45494 5.42538 0.792221C5.08622 1.1295 4.89436 1.58732 4.89172 2.06562V8.65563H3.51172C2.71607 8.65563 1.95301 8.9717 1.3904 9.5343C0.82779 10.0969 0.511719 10.86 0.511719 11.6556V22.4756C0.511719 23.2713 0.82779 24.0343 1.3904 24.5969C1.95301 25.1596 2.71607 25.4756 3.51172 25.4756H4.10172C4.10172 25.7939 4.22815 26.0991 4.45319 26.3242C4.67823 26.5492 4.98346 26.6756 5.30172 26.6756C5.61998 26.6756 5.9252 26.5492 6.15025 26.3242C6.37529 26.0991 6.50172 25.7939 6.50172 25.4756H10.1017C10.1017 25.7939 10.2281 26.0991 10.4532 26.3242C10.6782 26.5492 10.9835 26.6756 11.3017 26.6756C11.62 26.6756 11.9252 26.5492 12.1502 26.3242C12.3753 26.0991 12.5017 25.7939 12.5017 25.4756H13.1017C13.8974 25.4756 14.6604 25.1596 15.223 24.5969C15.7856 24.0343 16.1017 23.2713 16.1017 22.4756V11.6656C16.103 11.2708 16.0264 10.8796 15.8762 10.5145C15.7261 10.1494 15.5053 9.81747 15.2266 9.53784C14.9479 9.2582 14.6167 9.03633 14.2521 8.88494C13.8875 8.73355 13.4965 8.65562 13.1017 8.65563ZM5.31172 20.0756C5.31172 20.2348 5.2485 20.3874 5.13598 20.4999C5.02346 20.6124 4.87085 20.6756 4.71172 20.6756C4.55259 20.6756 4.39998 20.6124 4.28745 20.4999C4.17493 20.3874 4.11172 20.2348 4.11172 20.0756V14.0756C4.11172 13.9165 4.17493 13.7639 4.28745 13.6514C4.39998 13.5388 4.55259 13.4756 4.71172 13.4756C4.87085 13.4756 5.02346 13.5388 5.13598 13.6514C5.2485 13.7639 5.31172 13.9165 5.31172 14.0756V20.0756ZM8.91172 21.2756C8.91172 21.4348 8.84851 21.5874 8.73598 21.6999C8.62346 21.8124 8.47085 21.8756 8.31172 21.8756C8.15259 21.8756 7.99998 21.8124 7.88745 21.6999C7.77493 21.5874 7.71172 21.4348 7.71172 21.2756V12.8656C7.71172 12.7065 7.77493 12.5539 7.88745 12.4414C7.99998 12.3288 8.15259 12.2656 8.31172 12.2656C8.47085 12.2656 8.62346 12.3288 8.73598 12.4414C8.84851 12.5539 8.91172 12.7065 8.91172 12.8656V21.2756ZM6.10172 8.65563V2.06562C6.10172 1.90649 6.16493 1.75388 6.27745 1.64136C6.38998 1.52884 6.54259 1.46562 6.70172 1.46562H9.93172C10.0105 1.46562 10.0885 1.48114 10.1613 1.5113C10.2341 1.54145 10.3003 1.58565 10.356 1.64136C10.4117 1.69708 10.4559 1.76322 10.486 1.83601C10.5162 1.90881 10.5317 1.98683 10.5317 2.06562V8.65563H6.10172ZM12.5217 20.0756C12.5217 20.2348 12.4585 20.3874 12.346 20.4999C12.2335 20.6124 12.0808 20.6756 11.9217 20.6756C11.7626 20.6756 11.61 20.6124 11.4975 20.4999C11.3849 20.3874 11.3217 20.2348 11.3217 20.0756V14.0756C11.3217 13.9165 11.3849 13.7639 11.4975 13.6514C11.61 13.5388 11.7626 13.4756 11.9217 13.4756C12.0808 13.4756 12.2335 13.5388 12.346 13.6514C12.4585 13.7639 12.5217 13.9165 12.5217 14.0756V20.0756Z" fill=""/>
</svg>
