<svg width="19" height="18" viewBox="0 0 19 18" fill="none" xmlns="http://www.w3.org/2000/svg">
<path d="M17.2 7.20312L12.4 7.30312L11 4.90312H11.6C12.1 4.90312 12.5 4.50313 12.5 4.00312C12.5 3.50312 12.1 3.10313 11.6 3.10313H10L8.5 0.503125C8.4 0.303125 8.2 0.203125 8 0.203125H6.6C6.4 0.203125 6.3 0.403125 6.4 0.603125L8.7 7.40312L2.7 7.50313L2.1 6.10313C2 5.90313 1.8 5.70312 1.6 5.70312H0.3C0.1 5.70312 0 5.90313 0 6.00313L0.6 9.00313L0 12.0031C0 12.2031 0.1 12.3031 0.3 12.3031H1.6C1.8 12.3031 2 12.2031 2.1 11.9031L2.7 10.5031L8.6 10.6031L6.3 17.5031C6.2 17.7031 6.4 17.9031 6.6 17.9031H8C8.2 17.9031 8.4 17.8031 8.5 17.6031L9.9 15.0031H11.5C12 15.0031 12.4 14.6031 12.4 14.1031C12.4 13.6031 12 13.2031 11.5 13.2031H10.9L12.2 10.8031L17 10.9031C18 10.9031 18.8 10.1031 18.8 9.10312C19 8.00312 18.1 7.20312 17.2 7.20312Z" fill="#4E2DF1"/>
</svg>
