<svg width="16" height="18" viewBox="0 0 16 18" fill="none" xmlns="http://www.w3.org/2000/svg">
<path d="M4.4 0.800781C4.1 0.800781 3.9 1.00078 3.9 1.30078V3.30078C3.3 3.50078 2.8 4.10078 2.8 4.80078C2.8 5.70078 3.5 6.40076 4.4 6.40076C5.3 6.40076 6 5.70078 6 4.80078C6 4.10078 5.6 3.50078 4.9 3.30078V1.30078C5 1.00078 4.7 0.800781 4.4 0.800781ZM11.6 0.800781C11.3 0.800781 11.1 1.00078 11.1 1.30078V3.30078C10.5 3.50078 10 4.10078 10 4.80078C10 5.70078 10.7 6.40076 11.6 6.40076C12.5 6.40076 13.2 5.70078 13.2 4.80078C13.2 4.10078 12.8 3.50078 12.1 3.30078V1.30078C12.1 1.00078 11.9 0.800781 11.6 0.800781ZM2 1.80078C0.9 1.80078 0 2.70078 0 3.80078V15.2007C0 16.3007 0.9 17.2007 2 17.2007H14C15.1 17.2007 16 16.3007 16 15.2007V3.80078C16 2.70078 15.1 1.80078 14 1.80078H13C12.7 1.80078 12.5 2.10078 12.5 2.30078C12.5 2.60078 12.8 2.80078 13 2.80078H14C14.5 2.80078 14.9 3.20074 14.9 3.70074V6.70074H1.1V3.70074C1.1 3.20074 1.5 2.80078 2 2.80078H3C3.3 2.80078 3.5 2.50078 3.5 2.30078C3.5 2.00078 3.2 1.80078 3 1.80078H2ZM5.9 1.80078C5.6 1.80078 5.4 2.00078 5.4 2.30078C5.4 2.60078 5.6 2.80078 5.9 2.80078H10.2C10.5 2.80078 10.7 2.60078 10.7 2.30078C10.7 2.00078 10.5 1.80078 10.2 1.80078H5.9ZM4.4 4.30078C4.7 4.30078 4.9 4.50078 4.9 4.80078C4.9 5.10078 4.7 5.30078 4.4 5.30078C4.1 5.30078 3.9 5.10078 3.9 4.80078C3.9 4.60078 4.1 4.30078 4.4 4.30078ZM11.6 4.30078C11.9 4.30078 12.1 4.50078 12.1 4.80078C12.1 5.10078 11.9 5.30078 11.6 5.30078C11.3 5.30078 11.1 5.10078 11.1 4.80078C11 4.60078 11.3 4.30078 11.6 4.30078ZM1.1 7.90076H15V15.2007C15 15.7007 14.6 16.1008 14.1 16.1008H2C1.5 16.1008 1.1 15.7007 1.1 15.2007V7.90076Z" fill="#4E2DF1"/>
</svg>
