<svg width="14" height="14" viewBox="0 0 14 14" fill="none" xmlns="http://www.w3.org/2000/svg">
<path fill-rule="evenodd" clip-rule="evenodd" d="M6.99987 1.29843C5.66299 1.29843 4.57923 2.38219 4.57923 3.71907C4.57923 5.05596 5.66299 6.13972 6.99987 6.13972C8.33676 6.13972 9.42052 5.05596 9.42052 3.71907C9.42052 2.38219 8.33676 1.29843 6.99987 1.29843ZM3.55228 3.71907C3.55228 1.81502 5.09582 0.271484 6.99987 0.271484C8.90393 0.271484 10.4475 1.81502 10.4475 3.71907C10.4475 5.62313 8.90393 7.16667 6.99987 7.16667C5.09582 7.16667 3.55228 5.62313 3.55228 3.71907ZM1.62794 9.37155C2.27449 8.725 3.1514 8.36177 4.06575 8.36177H9.93399C10.8484 8.36177 11.7253 8.725 12.3718 9.37155C13.0184 10.0181 13.3816 10.895 13.3816 11.8094V13.2764C13.3816 13.56 13.1517 13.7899 12.8681 13.7899C12.5845 13.7899 12.3546 13.56 12.3546 13.2764V11.8094C12.3546 11.1674 12.0996 10.5517 11.6456 10.0977C11.1917 9.64374 10.576 9.38871 9.93399 9.38871H4.06575C3.42376 9.38871 2.80806 9.64374 2.3541 10.0977C1.90014 10.5517 1.64511 11.1674 1.64511 11.8094V13.2764C1.64511 13.56 1.41522 13.7899 1.13163 13.7899C0.848053 13.7899 0.618164 13.56 0.618164 13.2764V11.8094C0.618164 10.895 0.981391 10.0181 1.62794 9.37155Z" fill="#4E2DF1" stroke="#4E2DF1" stroke-width="0.4" stroke-linecap="round" stroke-linejoin="round"/>
</svg>
