<svg width="37" height="37" viewBox="0 0 37 37" fill="none" xmlns="http://www.w3.org/2000/svg">
<rect x="0.992188" y="1.04297" width="35" height="35.4" rx="6.5" fill="white"/>
<path d="M14.8922 10.543C14.5922 10.543 14.3922 10.743 14.3922 11.043V13.043C13.7922 13.243 13.2922 13.843 13.2922 14.543C13.2922 15.443 13.9922 16.1429 14.8922 16.1429C15.7922 16.1429 16.4922 15.443 16.4922 14.543C16.4922 13.843 16.0922 13.243 15.3922 13.043V11.043C15.4922 10.743 15.1922 10.543 14.8922 10.543ZM22.0922 10.543C21.7922 10.543 21.5922 10.743 21.5922 11.043V13.043C20.9922 13.243 20.4922 13.843 20.4922 14.543C20.4922 15.443 21.1922 16.1429 22.0922 16.1429C22.9922 16.1429 23.6922 15.443 23.6922 14.543C23.6922 13.843 23.2922 13.243 22.5922 13.043V11.043C22.5922 10.743 22.3922 10.543 22.0922 10.543ZM12.4922 11.543C11.3922 11.543 10.4922 12.443 10.4922 13.543V24.9429C10.4922 26.0429 11.3922 26.9429 12.4922 26.9429H24.4922C25.5922 26.9429 26.4922 26.0429 26.4922 24.9429V13.543C26.4922 12.443 25.5922 11.543 24.4922 11.543H23.4922C23.1922 11.543 22.9922 11.843 22.9922 12.043C22.9922 12.343 23.2922 12.543 23.4922 12.543H24.4922C24.9922 12.543 25.3922 12.9429 25.3922 13.4429V16.4429H11.5922V13.4429C11.5922 12.9429 11.9922 12.543 12.4922 12.543H13.4922C13.7922 12.543 13.9922 12.243 13.9922 12.043C13.9922 11.743 13.6922 11.543 13.4922 11.543H12.4922ZM16.3922 11.543C16.0922 11.543 15.8922 11.743 15.8922 12.043C15.8922 12.343 16.0922 12.543 16.3922 12.543H20.6922C20.9922 12.543 21.1922 12.343 21.1922 12.043C21.1922 11.743 20.9922 11.543 20.6922 11.543H16.3922ZM14.8922 14.043C15.1922 14.043 15.3922 14.243 15.3922 14.543C15.3922 14.843 15.1922 15.043 14.8922 15.043C14.5922 15.043 14.3922 14.843 14.3922 14.543C14.3922 14.343 14.5922 14.043 14.8922 14.043ZM22.0922 14.043C22.3922 14.043 22.5922 14.243 22.5922 14.543C22.5922 14.843 22.3922 15.043 22.0922 15.043C21.7922 15.043 21.5922 14.843 21.5922 14.543C21.4922 14.343 21.7922 14.043 22.0922 14.043ZM11.5922 17.6429H25.4922V24.9429C25.4922 25.4429 25.0922 25.843 24.5922 25.843H12.4922C11.9922 25.843 11.5922 25.4429 11.5922 24.9429V17.6429Z" fill="#352B67"/>
<g clip-path="url(#clip0_409_16763)">
<path d="M26.4928 30.7122C28.794 30.7122 30.6595 28.8468 30.6595 26.5456C30.6595 24.2444 28.794 22.3789 26.4928 22.3789C24.1917 22.3789 22.3262 24.2444 22.3262 26.5456C22.3262 28.8468 24.1917 30.7122 26.4928 30.7122Z" fill="#352B67" stroke="#352B67" stroke-width="0.833333" stroke-linecap="round" stroke-linejoin="round"/>
<path d="M26.4922 24.8789V28.2122" stroke="#EDEDED" stroke-width="0.833333" stroke-linecap="round" stroke-linejoin="round"/>
<path d="M24.8262 26.543H28.1595" stroke="#EDEDED" stroke-width="0.833333" stroke-linecap="round" stroke-linejoin="round"/>
</g>
<rect x="0.992188" y="1.04297" width="35" height="35.4" rx="6.5" stroke="#C1BFCF"/>
<defs>
<clipPath id="clip0_409_16763">
<rect width="10" height="10" fill="white" transform="translate(21.4922 21.543)"/>
</clipPath>
</defs>
</svg>
