<svg width="33" height="33" viewBox="0 0 33 33" fill="none" xmlns="http://www.w3.org/2000/svg">
<path d="M24.6379 5.59375H18.7579C17.7196 5.59375 16.8779 6.43545 16.8779 7.47375V10.9438C16.8779 11.982 17.7196 12.8237 18.7579 12.8237H24.6379C25.6762 12.8237 26.5179 11.982 26.5179 10.9438V7.47375C26.5179 6.43545 25.6762 5.59375 24.6379 5.59375Z" fill="#352B67"/>
<path d="M24.6379 14.543H18.7579C17.7196 14.543 16.8779 15.3847 16.8779 16.423V24.713C16.8779 25.7513 17.7196 26.593 18.7579 26.593H24.6379C25.6762 26.593 26.5179 25.7513 26.5179 24.713V16.423C26.5179 15.3847 25.6762 14.543 24.6379 14.543Z" fill="#352B67"/>
<path d="M13.2776 19.3633H7.39758C6.35928 19.3633 5.51758 20.205 5.51758 21.2433V24.7133C5.51758 25.7516 6.35928 26.5933 7.39758 26.5933H13.2776C14.3159 26.5933 15.1576 25.7516 15.1576 24.7133V21.2433C15.1576 20.205 14.3159 19.3633 13.2776 19.3633Z" fill="#352B67"/>
<path d="M13.2776 5.59375H7.39758C6.35928 5.59375 5.51758 6.43545 5.51758 7.47375V15.7638C5.51758 16.802 6.35928 17.6437 7.39758 17.6437H13.2776C14.3159 17.6437 15.1576 16.802 15.1576 15.7638V7.47375C15.1576 6.43545 14.3159 5.59375 13.2776 5.59375Z" fill="#352B67"/>
</svg>
