<svg width="30" height="29" viewBox="0 0 30 29" fill="none" xmlns="http://www.w3.org/2000/svg">
<path d="M15.4727 29C23.4808 29 29.9727 22.5081 29.9727 14.5C29.9727 6.49187 23.4808 0 15.4727 0C7.46453 0 0.972656 6.49187 0.972656 14.5C0.972656 22.5081 7.46453 29 15.4727 29Z" fill="#4E2DF1"/>
<path fill-rule="evenodd" clip-rule="evenodd" d="M15.0427 19.1199L15.2575 18.6902L11.8205 16.7569L16.1168 8.91616C16.5464 8.16431 17.4057 7.9495 18.1575 8.37912L19.0168 8.80875C19.7686 9.23838 19.9834 10.0976 19.5538 10.8495L15.0427 19.1199ZM14.8279 19.6569C14.6131 19.9791 14.2908 20.1939 13.9686 20.3013L12.1427 20.8384C12.0353 20.8384 11.8205 20.8384 11.8205 20.6236L11.2834 18.7976C11.176 18.4754 11.176 18.0458 11.3908 17.7236L14.8279 19.6569Z" fill="white"/>
</svg>
