<svg width="19" height="18" viewBox="0 0 19 18" fill="none" xmlns="http://www.w3.org/2000/svg">
<path d="M12.9727 15.5C10.4627 15.5 8.29266 14.08 7.21266 12H12.9727V10H6.55266C6.50266 9.67 6.47266 9.34 6.47266 9C6.47266 8.66 6.50266 8.33 6.55266 8H12.9727V6H7.21266C8.29266 3.92 10.4727 2.5 12.9727 2.5C14.5827 2.5 16.0627 3.09 17.2027 4.07L18.9727 2.3C17.3827 0.87 15.2727 0 12.9727 0C9.05266 0 5.73266 2.51 4.49266 6H0.972656V8H4.03266C3.99266 8.33 3.97266 8.66 3.97266 9C3.97266 9.34 3.99266 9.67 4.03266 10H0.972656V12H4.49266C5.73266 15.49 9.05266 18 12.9727 18C15.2827 18 17.3827 17.13 18.9727 15.7L17.1927 13.93C16.0627 14.91 14.5927 15.5 12.9727 15.5Z" fill="#C1BFCF"/>
</svg>
