<svg width="23" height="16" viewBox="0 0 23 16" fill="none" xmlns="http://www.w3.org/2000/svg">
<g clip-path="url(#clip0_409_16449)">
<path d="M21.5625 8.21406C21.5625 8.07031 17.3937 2.75156 11.5 2.75156C5.60625 2.75156 1.4375 8.07031 1.4375 8.21406L0 7.06406C0.14375 6.77656 4.74375 0.882812 11.5 0.882812C18.2563 0.882812 22.8563 6.77656 23 7.06406L21.5625 8.21406ZM16.5312 10.2266C16.5312 7.35156 14.2312 5.19531 11.5 5.19531C8.76875 5.19531 6.6125 7.35156 6.6125 10.2266C6.6125 13.1016 8.76875 15.1141 11.5 15.1141C14.2312 15.1141 16.5312 12.9578 16.5312 10.2266ZM14.8063 10.2266C14.8063 11.9516 13.3688 13.3891 11.6438 13.3891C9.91875 13.3891 8.48125 11.9516 8.48125 10.2266C8.48125 8.50156 9.91875 7.06406 11.6438 7.06406C13.225 6.92031 14.8063 8.35781 14.8063 10.2266Z" fill="#C1BFCF"/>
</g>
<defs>
<clipPath id="clip0_409_16449">
<rect width="23" height="14.2312" fill="white" transform="translate(0 0.882812)"/>
</clipPath>
</defs>
</svg>
