<svg width="24" height="18" viewBox="0 0 24 18" fill="none" xmlns="http://www.w3.org/2000/svg">
<path d="M2.12758 0.832031C1.70058 0.832031 1.29107 1.00166 0.989136 1.30359C0.687203 1.60552 0.517578 2.01503 0.517578 2.44203V12.762L3.01758 5.41203C3.16548 4.9015 3.41364 4.42556 3.74758 4.01203C3.95255 3.77434 4.20559 3.58281 4.49 3.45009C4.77442 3.31736 5.08375 3.24645 5.39758 3.24203H19.8176V2.44203C19.8189 2.23108 19.7785 2.02194 19.6987 1.82667C19.6189 1.63139 19.5012 1.45383 19.3525 1.30419C19.2038 1.15456 19.027 1.03581 18.8322 0.954774C18.6374 0.873742 18.4285 0.832027 18.2176 0.832031H2.12758ZM5.77758 4.48203C4.87758 4.48203 4.44758 5.24203 4.16758 6.09203L0.947578 15.742C0.667578 16.592 1.66758 17.352 2.55758 17.352H18.6476C19.5376 17.352 19.9676 16.592 20.2476 15.742L23.4676 6.09203C23.7476 5.24203 22.7476 4.48203 21.8576 4.48203H5.77758Z" fill="#352B67"/>
</svg>
