<svg width="10" height="18" viewBox="0 0 10 18" fill="none" xmlns="http://www.w3.org/2000/svg">
<path d="M4.60194 0.864063C4.60194 0.764063 4.50194 0.664062 4.30194 0.664062C4.20194 0.664062 4.00194 0.764063 4.00194 0.964063V4.36406C4.00194 4.46406 3.90194 4.66406 3.80194 4.66406C3.70194 4.66406 3.60194 4.56406 3.50194 4.46406V4.36406V0.964063C3.50194 0.764063 3.40194 0.664062 3.30194 0.664062C3.10194 0.664062 3.00194 0.764063 3.00194 0.964063V4.36406C3.00194 4.56406 2.90194 4.66406 2.70194 4.66406C2.60194 4.56406 2.50194 4.46406 2.50194 4.26406V0.964063C2.50194 0.764063 2.30194 0.664062 2.20194 0.664062C2.00194 0.664062 1.90194 0.764063 1.90194 0.964063V4.36406C1.90194 4.56406 1.80194 4.66406 1.60194 4.66406C1.40194 4.66406 1.30194 4.46406 1.30194 4.36406V0.964063C1.40194 0.764063 1.30194 0.664062 1.10194 0.664062C1.00194 0.664062 0.901941 0.764063 0.901941 0.864063L0.701941 2.76406C0.501941 4.76406 0.601941 5.56406 1.40194 6.26406C1.90194 6.66406 2.10194 7.36406 2.10194 8.06406C2.10194 10.6641 1.30194 13.4641 1.80194 16.4641C1.90194 17.2641 2.20194 17.5641 2.70194 17.5641C3.20194 17.5641 3.50194 17.2641 3.60194 16.4641C4.00194 13.4641 3.30194 10.6641 3.30194 8.06406C3.30194 7.36406 3.60194 6.66406 4.10194 6.26406C4.80194 5.56406 5.00194 4.76406 4.80194 2.76406L4.60194 0.864063Z" fill="#8C87A8"/>
<path d="M9.0012 0.764208C8.7012 0.964208 7.6012 1.76421 7.2012 3.66421C6.6012 6.76421 7.4012 8.86421 8.1012 9.56421C8.6012 10.0642 8.5012 10.4642 8.3012 11.4642C7.9012 13.6642 7.4012 16.2642 8.1012 17.1642C8.3012 17.3642 8.5012 17.4642 8.8012 17.5642C9.2012 17.5642 9.6012 17.2642 9.6012 16.4642V0.964208C9.6012 0.664208 9.4012 0.564208 9.0012 0.764208Z" fill="#8C87A8"/>
</svg>
