<svg width="20" height="18" viewBox="0 0 20 18" fill="none" xmlns="http://www.w3.org/2000/svg">
<path d="M17.8133 7.06055L13.0133 7.16055L11.6133 4.76055H12.2133C12.7133 4.76055 13.1133 4.36055 13.1133 3.86055C13.1133 3.36055 12.7133 2.96055 12.2133 2.96055H10.6133L9.11328 0.360547C9.01328 0.160547 8.81328 0.0605469 8.61328 0.0605469H7.21328C7.01328 0.0605469 6.91328 0.260547 7.01328 0.460547L9.31328 7.26055L3.31328 7.36055L2.71328 5.96055C2.61328 5.76055 2.41328 5.56055 2.21328 5.56055H0.913281C0.713281 5.56055 0.613281 5.76055 0.613281 5.86055L1.21328 8.86055L0.613281 11.8605C0.613281 12.0605 0.713281 12.1605 0.913281 12.1605H2.21328C2.41328 12.1605 2.61328 12.0605 2.71328 11.7605L3.31328 10.3605L9.21328 10.4605L6.91328 17.3605C6.81328 17.5605 7.01328 17.7605 7.21328 17.7605H8.61328C8.81328 17.7605 9.01328 17.6605 9.11328 17.4605L10.5133 14.8605H12.1133C12.6133 14.8605 13.0133 14.4605 13.0133 13.9605C13.0133 13.4605 12.6133 13.0605 12.1133 13.0605H11.5133L12.8133 10.6605L17.6133 10.7605C18.6133 10.7605 19.4133 9.96055 19.4133 8.96055C19.6133 7.86055 18.7133 7.06055 17.8133 7.06055Z" fill="#9897CD"/>
</svg>
