<svg width="13" height="13" viewBox="0 0 13 13" fill="none" xmlns="http://www.w3.org/2000/svg">
<path d="M12.5 6.74367C12.3949 7.88088 11.9681 8.96465 11.2696 9.86815C10.571 10.7717 9.6296 11.4575 8.55546 11.8455C7.48133 12.2335 6.31891 12.3076 5.20422 12.059C4.08953 11.8105 3.06869 11.2496 2.26113 10.442C1.45357 9.63447 0.892699 8.61362 0.64415 7.49894C0.395602 6.38425 0.469652 5.22183 0.857638 4.14769C1.24562 3.07355 1.9315 2.13213 2.835 1.43357C3.73851 0.735013 4.82227 0.308218 5.95949 0.203125C5.29368 1.10388 4.9733 2.21369 5.05659 3.3307C5.13989 4.44772 5.16745 5.95163 5.95949 6.74367C6.75153 7.53571 8.27098 7.80279 9.388 7.88609C10.505 7.96939 11.5993 7.40947 12.5 6.74367Z" fill="#1B2533"/>
<path d="M12.5 6.74367C12.3949 7.88088 11.9681 8.96465 11.2696 9.86815C10.571 10.7717 9.6296 11.4575 8.55546 11.8455C7.48133 12.2335 6.31891 12.3076 5.20422 12.059C4.08953 11.8105 3.06869 11.2496 2.26113 10.442C1.45357 9.63447 0.892699 8.61362 0.64415 7.49894C0.395602 6.38425 0.469652 5.22183 0.857638 4.14769C1.24562 3.07355 1.9315 2.13213 2.835 1.43357C3.73851 0.735013 4.82227 0.308218 5.95949 0.203125C5.29368 1.10388 4.9733 2.21369 5.05659 3.3307C5.13989 4.44772 5.16745 5.95163 5.95949 6.74367C6.75153 7.53571 8.27098 7.80279 9.388 7.88609C10.505 7.96939 11.5993 7.40947 12.5 6.74367Z" fill="black" fill-opacity="0.2"/>
</svg>
