<svg width="11" height="11" viewBox="0 0 11 11" fill="none" xmlns="http://www.w3.org/2000/svg">
<g clip-path="url(#clip0_409_15441)">
<path d="M5.50065 9.37044C7.80184 9.37044 9.66732 7.50496 9.66732 5.20378C9.66732 2.90259 7.80184 1.03711 5.50065 1.03711C3.19946 1.03711 1.33398 2.90259 1.33398 5.20378C1.33398 7.50496 3.19946 9.37044 5.50065 9.37044Z" fill="#1B2533"/>
<path d="M5.50065 9.37044C7.80184 9.37044 9.66732 7.50496 9.66732 5.20378C9.66732 2.90259 7.80184 1.03711 5.50065 1.03711C3.19946 1.03711 1.33398 2.90259 1.33398 5.20378C1.33398 7.50496 3.19946 9.37044 5.50065 9.37044Z" fill="black" fill-opacity="0.2"/>
<path d="M5.50065 9.37044C7.80184 9.37044 9.66732 7.50496 9.66732 5.20378C9.66732 2.90259 7.80184 1.03711 5.50065 1.03711C3.19946 1.03711 1.33398 2.90259 1.33398 5.20378C1.33398 7.50496 3.19946 9.37044 5.50065 9.37044Z" stroke="#1B2533" stroke-linecap="round" stroke-linejoin="round"/>
<path d="M5.50065 9.37044C7.80184 9.37044 9.66732 7.50496 9.66732 5.20378C9.66732 2.90259 7.80184 1.03711 5.50065 1.03711C3.19946 1.03711 1.33398 2.90259 1.33398 5.20378C1.33398 7.50496 3.19946 9.37044 5.50065 9.37044Z" stroke="black" stroke-opacity="0.2" stroke-linecap="round" stroke-linejoin="round"/>
<path d="M5.5 3.53711V5.20378" stroke="#EDEDED" stroke-linecap="round" stroke-linejoin="round"/>
<path d="M5.5 6.86914H5.50417" stroke="#EDEDED" stroke-linecap="round" stroke-linejoin="round"/>
</g>
<defs>
<clipPath id="clip0_409_15441">
<rect width="10" height="10" fill="white" transform="translate(0.5 0.203125)"/>
</clipPath>
</defs>
</svg>
