<svg width="8" height="13" viewBox="0 0 8 13" fill="none" xmlns="http://www.w3.org/2000/svg">
<path d="M7.7 10.5801H0.3C0.1 10.5801 0 10.6801 0 10.8801V11.8801C0 12.0801 0.1 12.1801 0.3 12.1801H7.7C7.9 12.1801 8 12.0801 8 11.8801V10.8801C8 10.6801 7.9 10.5801 7.7 10.5801Z" fill="white"/>
<path d="M2.39967 7.68086C2.49967 7.88086 2.69967 8.08086 2.79967 8.18086L3.79967 9.18086C3.89967 9.28086 4.09967 9.28086 4.29967 9.18086L5.29967 8.18086C5.29967 8.08086 5.49967 7.88086 5.59967 7.68086L6.59967 6.68086C6.69967 6.58086 6.69967 6.48086 6.49967 6.48086H5.39967C5.19967 6.48086 5.09967 6.38086 5.09967 6.18086V1.18086C5.09967 0.980859 4.99967 0.880859 4.79967 0.880859H3.19967C2.99967 0.880859 2.89967 0.980859 2.89967 1.18086V6.18086C2.89967 6.38086 2.79967 6.48086 2.59967 6.48086H1.49967C1.29967 6.48086 1.29967 6.58086 1.39967 6.68086L2.39967 7.68086Z" fill="white"/>
</svg>
