<svg width="9" height="13" viewBox="0 0 9 13" fill="none" xmlns="http://www.w3.org/2000/svg">
<g clip-path="url(#clip0_604_9480)">
<path d="M7.70269 10.55H0.302686C0.102686 10.55 0.00268555 10.65 0.00268555 10.85V11.85C0.00268555 12.05 0.102686 12.15 0.302686 12.15H7.70269C7.90269 12.15 8.00269 12.05 8.00269 11.85V10.85C8.00269 10.65 7.90269 10.55 7.70269 10.55Z" fill="#4E2DF1"/>
<path d="M2.4026 7.6501C2.5026 7.8501 2.7026 8.0501 2.8026 8.1501L3.8026 9.1501C3.9026 9.2501 4.1026 9.2501 4.3026 9.1501L5.3026 8.1501C5.3026 8.0501 5.5026 7.8501 5.6026 7.6501L6.6026 6.6501C6.7026 6.5501 6.7026 6.4501 6.5026 6.4501H5.4026C5.2026 6.4501 5.1026 6.3501 5.1026 6.1501V1.1501C5.1026 0.950098 5.0026 0.850098 4.8026 0.850098H3.2026C3.0026 0.850098 2.9026 0.950098 2.9026 1.1501V6.1501C2.9026 6.3501 2.8026 6.4501 2.6026 6.4501H1.5026C1.3026 6.4501 1.3026 6.5501 1.4026 6.6501L2.4026 7.6501Z" fill="#4E2DF1"/>
</g>
<defs>
<clipPath id="clip0_604_9480">
<rect width="8" height="11.3" fill="white" transform="translate(0.00268555 0.850098)"/>
</clipPath>
</defs>
</svg>
