<svg width="17" height="26" viewBox="0 0 17 26" fill="none" xmlns="http://www.w3.org/2000/svg">
<path fill-rule="evenodd" clip-rule="evenodd" d="M7.69374 24.8316C8.0795 25.4151 8.9205 25.4151 9.30626 24.8316C11.4272 21.6235 17 12.8323 17 9.03125C17 4.33683 13.1944 0.53125 8.5 0.53125C3.80558 0.53125 0 4.33683 0 9.03125C0 12.8323 5.57279 21.6235 7.69374 24.8316ZM8.5 13.2812C10.7782 13.2812 12.625 11.4344 12.625 9.15625C12.625 6.87807 10.7782 5.03125 8.5 5.03125C6.22183 5.03125 4.375 6.87807 4.375 9.15625C4.375 11.4344 6.22183 13.2812 8.5 13.2812Z" fill="#4E2DF1"/>
</svg>
