<svg width="35" height="41" viewBox="0 0 35 41" fill="none" xmlns="http://www.w3.org/2000/svg">
<path d="M9.41562 27.0797C3.31562 20.9797 3.31562 10.9797 9.41562 4.87969C15.5156 -1.22031 25.5156 -1.22031 31.6156 4.87969L27.2156 9.27969C23.5156 5.57969 17.5156 5.57969 13.8156 9.27969C10.1156 12.9797 10.1156 18.9797 13.8156 22.6797L9.41562 27.0797ZM18.3156 18.1797C22.0156 21.8797 22.0156 27.8797 18.3156 31.5797C14.6156 35.2797 8.61563 35.2797 4.91563 31.5797L0.515625 35.9797C3.61562 39.0797 7.61563 40.5797 11.6156 40.5797C15.6156 40.5797 19.6156 39.0797 22.7156 35.9797C28.8156 29.8797 28.8156 19.8797 22.7156 13.7797L18.3156 18.1797Z" fill="#4E2DF1"/>
<path d="M32.916 6.28125C33.716 6.28125 34.416 6.98125 34.416 7.78125C34.416 8.58125 33.716 9.28125 32.916 9.28125C32.116 9.28125 31.416 8.58125 31.416 7.78125C31.416 6.98125 32.016 6.28125 32.916 6.28125ZM32.916 8.98125C33.616 8.98125 34.116 8.48125 34.116 7.78125C34.116 7.08125 33.616 6.58125 32.916 6.58125C32.216 6.58125 31.716 7.08125 31.716 7.78125C31.716 8.48125 32.216 8.98125 32.916 8.98125ZM32.816 8.08125H32.716V8.68125H32.316V6.98125H33.016C33.316 6.98125 33.616 7.18125 33.616 7.48125C33.616 7.68125 33.516 7.88125 33.316 7.98125L33.616 8.58125H33.216L32.816 8.08125ZM32.916 7.68125C33.016 7.68125 33.116 7.58125 33.116 7.48125C33.116 7.38125 33.016 7.28125 32.916 7.28125H32.716V7.68125H32.916Z" fill="#4E2DF1"/>
</svg>
