<svg width="20" height="13" viewBox="0 0 20 13" fill="none" xmlns="http://www.w3.org/2000/svg">
<g clip-path="url(#clip0_409_16320)">
<path d="M3.8 6.63164C3.8 8.03164 2.7 9.33164 1.3 9.53164V12.0316H18.6V9.53164C17 9.33164 15.9 7.83164 16.1 6.23164C16.3 4.93164 17.3 3.93164 18.6 3.73164V1.23164H1.3V3.73164C2.7 3.93164 3.8 5.23164 3.8 6.63164ZM0.5 4.13164V0.831641C0.5 0.631641 0.7 0.431641 0.9 0.431641H19.1C19.3 0.431641 19.5 0.631641 19.5 0.831641V4.13164C19.5 4.33164 19.3 4.53164 19.1 4.53164C18 4.53164 17 5.43164 17 6.63164C17 7.73164 17.9 8.73164 19.1 8.73164C19.3 8.73164 19.5 8.93164 19.5 9.13164V12.4316C19.5 12.6316 19.3 12.8316 19.1 12.8316H0.9C0.7 12.8316 0.5 12.6316 0.5 12.4316V9.13164C0.5 8.93164 0.7 8.73164 0.9 8.73164C2 8.73164 3 7.83164 3 6.63164C3 5.43164 2.1 4.53164 0.9 4.53164C0.7 4.53164 0.5 4.33164 0.5 4.13164ZM12.9 2.53164C12.9 2.33164 13.1 2.13164 13.3 2.13164C13.5 2.13164 13.7 2.33164 13.7 2.53164V4.23164C13.7 4.43164 13.5 4.63164 13.3 4.63164C13.1 4.63164 12.9 4.43164 12.9 4.23164V2.53164ZM12.9 5.83164C12.9 5.63164 13.1 5.43164 13.3 5.43164C13.5 5.43164 13.7 5.63164 13.7 5.83164V7.43164C13.7 7.63164 13.5 7.83164 13.3 7.83164C13.1 7.83164 12.9 7.63164 12.9 7.43164V5.83164ZM12.9 9.13164C12.9 8.93164 13.1 8.73164 13.3 8.73164C13.5 8.73164 13.7 8.93164 13.7 9.13164V10.8316C13.7 11.0316 13.5 11.2316 13.3 11.2316C13.1 11.2316 12.9 11.0316 12.9 10.8316V9.13164Z" fill="#4E2DF1"/>
</g>
<defs>
<clipPath id="clip0_409_16320">
<rect width="19" height="12.4" fill="white" transform="translate(0.5 0.431641)"/>
</clipPath>
</defs>
</svg>
