<svg width="19" height="19" viewBox="0 0 19 19" fill="none" xmlns="http://www.w3.org/2000/svg">
<path d="M17.2 7.53125L12.4 7.63125L11 5.23125H11.6C12.1 5.23125 12.5 4.83125 12.5 4.33125C12.5 3.83125 12.1 3.43125 11.6 3.43125H10L8.5 0.83125C8.4 0.63125 8.2 0.53125 8 0.53125H6.6C6.4 0.53125 6.3 0.73125 6.4 0.93125L8.7 7.73125L2.7 7.83125L2.1 6.43125C2 6.23125 1.8 6.03125 1.6 6.03125H0.3C0.1 6.03125 0 6.23125 0 6.33125L0.6 9.33125L0 12.3313C0 12.5312 0.1 12.6313 0.3 12.6313H1.6C1.8 12.6313 2 12.5312 2.1 12.2312L2.7 10.8313L8.6 10.9312L6.3 17.8312C6.2 18.0312 6.4 18.2313 6.6 18.2313H8C8.2 18.2313 8.4 18.1313 8.5 17.9312L9.9 15.3313H11.5C12 15.3313 12.4 14.9312 12.4 14.4312C12.4 13.9312 12 13.5312 11.5 13.5312H10.9L12.2 11.1313L17 11.2312C18 11.2312 18.8 10.4312 18.8 9.43125C19 8.33125 18.1 7.53125 17.2 7.53125Z" fill="#9897CD"/>
</svg>
