<svg width="22" height="12" viewBox="0 0 22 12" fill="none" xmlns="http://www.w3.org/2000/svg">
<path d="M5.02507 11.049L5.02316 11.0495C3.83 11.4075 2.59897 10.9104 2.16926 9.94359L2.15901 9.92051L2.14648 9.89859L0.508257 7.0317C0.513619 7.0267 0.521083 7.02067 0.531268 7.01414L1.69566 6.62602L3.76605 7.79061C4.03554 8.02198 4.32219 8.0215 4.46331 8.02127C4.46766 8.02126 4.47187 8.02125 4.47594 8.02125H4.55062L4.62205 7.99943L9.5965 6.47946L10.3234 6.25735L9.83164 5.67779L6.20194 1.39993L8.00624 0.83609C8.11356 0.836634 8.19244 0.838966 8.25697 0.848185C8.274 0.850618 8.28651 0.853105 8.29525 0.855161L8.30182 0.861725L8.34174 0.888653L14.2834 4.89585L14.4752 5.02514L14.6978 4.96279L18.1523 3.99554L18.1523 3.99562L18.1612 3.99297C19.3266 3.64335 20.6218 4.10745 21.3323 5.1732L21.3443 5.19125L21.3579 5.2082C21.5136 5.40277 21.5349 5.62774 21.4538 5.84056C21.3701 6.06017 21.1761 6.26131 20.9066 6.35356L5.02507 11.049Z" fill="white" stroke="#4E2DF1"/>
</svg>
