<svg width="10" height="10" viewBox="0 0 10 10" fill="none" xmlns="http://www.w3.org/2000/svg">
<path d="M2.52995 6.57682V7.57682C2.52995 8.74349 3.44661 9.74349 4.61328 9.82682C5.86328 9.91016 6.86328 8.91016 6.86328 7.66016C6.86328 6.99349 7.36328 6.49349 8.02995 6.49349H9.19661C9.44661 6.49349 9.69661 6.24349 9.69661 5.99349C9.69661 5.74349 9.44661 5.49349 9.19661 5.49349H8.11328C6.94661 5.49349 5.94661 6.49349 5.94661 7.66016C5.94661 8.24349 5.52995 8.82682 4.86328 8.91016C4.19661 8.91016 3.52995 8.32682 3.52995 7.66016V6.57682C4.61328 6.32682 5.44661 5.41016 5.44661 4.24349V2.99349C5.44661 2.82682 5.27995 2.66016 5.11328 2.66016H4.52995V1.16016C4.52995 0.910156 4.36328 0.660156 4.11328 0.660156C3.86328 0.660156 3.61328 0.826823 3.61328 1.16016V2.66016H2.44661V1.16016C2.44661 0.910156 2.27995 0.660156 2.02995 0.660156C1.77995 0.660156 1.52995 0.826823 1.52995 1.16016V2.66016H0.946615C0.779948 2.66016 0.613281 2.82682 0.613281 2.99349V4.24349C0.613281 5.41016 1.44661 6.32682 2.52995 6.57682Z" fill="#8C87A8"/>
</svg>
