<svg width="19" height="15" viewBox="0 0 19 15" fill="none" xmlns="http://www.w3.org/2000/svg">
<path d="M2.77266 4.3012H13.5727C13.8727 4.3012 14.0727 4.1012 14.0727 3.8012C14.0727 3.5012 13.8727 3.3012 13.5727 3.3012H2.77266L5.17266 0.901204C5.37266 0.701204 5.37266 0.401204 5.17266 0.201204C5.07266 0.00120449 4.67266 -0.0987955 4.47266 0.101204L1.17266 3.4012C1.07266 3.5012 0.972656 3.7012 0.972656 3.8012C0.972656 3.9012 1.07266 4.1012 1.17266 4.2012L4.57266 7.5012C4.67266 7.6012 4.77266 7.6012 4.97266 7.6012C5.07266 7.6012 5.27266 7.5012 5.37266 7.4012C5.57266 7.2012 5.57266 6.9012 5.37266 6.7012L2.77266 4.3012Z" fill="#352B67"/>
<path d="M18.973 10.4008C18.973 10.3008 18.873 10.1008 18.773 10.0008L15.373 6.70078C15.173 6.50078 14.873 6.50078 14.673 6.70078C14.473 6.90078 14.473 7.20078 14.673 7.40078L17.073 9.80078H6.37305C6.07305 9.80078 5.87305 10.0008 5.87305 10.3008C5.87305 10.6008 6.07305 10.8008 6.37305 10.8008H17.173L14.773 13.2008C14.573 13.4008 14.573 13.7008 14.773 13.9008C14.873 14.0008 14.973 14.1008 15.173 14.1008C15.273 14.1008 15.473 14.1008 15.573 14.0008L18.973 10.7008C18.873 10.6008 18.973 10.5008 18.973 10.4008Z" fill="#352B67"/>
</svg>
