<svg width="21" height="20" viewBox="0 0 21 20" fill="none" xmlns="http://www.w3.org/2000/svg">
<path d="M3.98927 4.02076C3.07127 3.36796 2.84687 2.10316 3.48947 1.17496C4.13207 0.256959 5.40707 0.0325593 6.33527 0.675159C7.25327 1.32796 7.47767 2.59276 6.83507 3.52096C6.18227 4.43896 4.91747 4.66336 3.98927 4.02076ZM14.8523 17.648H7.64087C6.13127 17.648 4.84607 16.5464 4.62167 15.0572L2.61227 5.40796H0.572266L2.60207 15.3632C2.98967 17.852 5.13167 19.688 7.65107 19.688H14.8523V17.648ZM15.0869 13.568H10.1093L9.05867 9.38596C10.6703 10.2938 12.4043 10.9568 14.3117 10.6304V8.45776C12.6491 8.77396 10.8029 8.18236 9.52787 7.18276L7.85507 5.88736C7.62047 5.70376 7.35527 5.58136 7.07987 5.49976C6.75347 5.40796 6.40667 5.37736 6.07007 5.43856H6.04967C4.79507 5.66296 3.95867 6.85636 4.17287 8.10076L5.54987 14.1392C5.83547 15.5876 7.09007 16.628 8.55887 16.628H15.5459L19.4423 19.688L20.9723 18.158L15.0869 13.568Z" fill="#C1BFCF"/>
</svg>
