<svg width="16" height="17" viewBox="0 0 16 17" fill="none" xmlns="http://www.w3.org/2000/svg">
<g clip-path="url(#clip0_661_8212)">
<rect width="16" height="16" transform="translate(0 0.03125)" fill="white"/>
<path fill-rule="evenodd" clip-rule="evenodd" d="M7.05075 0.825061C7.3614 0.78454 7.67796 0.763672 7.99909 0.763672C8.32022 0.763672 8.63678 0.78454 8.94742 0.825061C9.27601 0.867922 9.50764 1.16904 9.46478 1.49763C9.42192 1.82621 9.1208 2.05784 8.79221 2.01498C8.5329 1.98115 8.26818 1.96367 7.99909 1.96367C7.72999 1.96367 7.46528 1.98116 7.20597 2.01498C6.87738 2.05784 6.57626 1.82622 6.5334 1.49763C6.49054 1.16904 6.72217 0.867922 7.05075 0.825061ZM9.99677 1.63971C10.1237 1.33361 10.4747 1.18837 10.7808 1.31531C11.3719 1.56042 11.9234 1.88115 12.4232 2.26526C12.686 2.46717 12.7353 2.84385 12.5334 3.1066C12.3315 3.36935 11.9548 3.41867 11.6921 3.21676C11.2744 2.89582 10.8141 2.62817 10.3212 2.42378C10.0151 2.29684 9.86984 1.94581 9.99677 1.63971ZM6.00141 1.63971C6.12834 1.94581 5.9831 2.29684 5.677 2.42378C5.18412 2.62817 4.72377 2.89582 4.30612 3.21676C4.04337 3.41867 3.66669 3.36936 3.46478 3.10661C3.26286 2.84386 3.31218 2.46717 3.57493 2.26526C4.07477 1.88115 4.62625 1.56042 5.21734 1.31531C5.52343 1.18837 5.87447 1.33361 6.00141 1.63971ZM12.9228 3.49603C13.1856 3.29411 13.5623 3.34343 13.7642 3.60618C14.1483 4.10602 14.469 4.6575 14.7141 5.24859C14.8411 5.55468 14.6958 5.90572 14.3897 6.03266C14.0836 6.15959 13.7326 6.01435 13.6056 5.70825C13.4013 5.21537 13.1336 4.75502 12.8127 4.33737C12.6108 4.07462 12.6601 3.69794 12.9228 3.49603ZM3.07535 3.49603C3.3381 3.69794 3.38742 4.07462 3.18551 4.33737C2.86457 4.75502 2.59692 5.21537 2.39253 5.70825C2.26559 6.01435 1.91456 6.15959 1.60846 6.03266C1.30236 5.90572 1.15712 5.55468 1.28406 5.24859C1.52917 4.6575 1.8499 4.10603 2.23401 3.60618C2.43592 3.34343 2.8126 3.29411 3.07535 3.49603ZM14.5318 6.56465C14.8604 6.52179 15.1615 6.75342 15.2044 7.082C15.2449 7.39265 15.2658 7.70921 15.2658 8.03034C15.2658 8.35147 15.2449 8.66803 15.2044 8.97867C15.1615 9.30726 14.8604 9.53889 14.5318 9.49603C14.2032 9.45317 13.9716 9.15205 14.0144 8.82346C14.0483 8.56415 14.0658 8.29943 14.0658 8.03034C14.0658 7.76124 14.0483 7.49653 14.0144 7.23722C13.9716 6.90863 14.2032 6.60751 14.5318 6.56465ZM1.46638 6.56465C1.79496 6.60751 2.02659 6.90863 1.98373 7.23722C1.9499 7.49653 1.93242 7.76124 1.93242 8.03034C1.93242 8.29943 1.94991 8.56415 1.98373 8.82346C2.02659 9.15205 1.79497 9.45317 1.46638 9.49603C1.13779 9.53889 0.836672 9.30726 0.793811 8.97867C0.75329 8.66803 0.732422 8.35147 0.732422 8.03034C0.732422 7.70921 0.75329 7.39265 0.793811 7.082C0.836672 6.75342 1.13779 6.52179 1.46638 6.56465ZM14.3897 10.028C14.6958 10.155 14.8411 10.506 14.7141 10.8121C14.469 11.4032 14.1483 11.9547 13.7642 12.4545C13.5623 12.7172 13.1856 12.7666 12.9228 12.5647C12.6601 12.3627 12.6108 11.9861 12.8127 11.7233C13.1336 11.3057 13.4013 10.8453 13.6056 10.3524C13.7326 10.0463 14.0836 9.90109 14.3897 10.028ZM1.60846 10.028C1.91456 9.90109 2.26559 10.0463 2.39253 10.3524C2.59692 10.8453 2.86457 11.3057 3.18551 11.7233C3.38742 11.9861 3.33811 12.3627 3.07536 12.5647C2.81261 12.7666 2.43592 12.7172 2.23401 12.4545C1.8499 11.9547 1.52917 11.4032 1.28406 10.8121C1.15712 10.506 1.30236 10.155 1.60846 10.028ZM12.5334 12.9541C12.7353 13.2168 12.686 13.5935 12.4232 13.7954C11.9234 14.1795 11.3719 14.5003 10.7808 14.7454C10.4747 14.8723 10.1237 14.7271 9.99677 14.421C9.86984 14.1149 10.0151 13.7638 10.3212 13.6369C10.8141 13.4325 11.2744 13.1649 11.6921 12.8439C11.9548 12.642 12.3315 12.6913 12.5334 12.9541ZM3.46478 12.9541C3.66669 12.6913 4.04337 12.642 4.30612 12.8439C4.72377 13.1649 5.18412 13.4325 5.677 13.6369C5.9831 13.7638 6.12834 14.1149 6.00141 14.421C5.87447 14.7271 5.52343 14.8723 5.21734 14.7454C4.62625 14.5003 4.07478 14.1795 3.57493 13.7954C3.31218 13.5935 3.26286 13.2168 3.46478 12.9541ZM6.5334 14.563C6.57626 14.2345 6.87738 14.0028 7.20597 14.0457C7.46528 14.0795 7.72999 14.097 7.99909 14.097C8.26818 14.097 8.5329 14.0795 8.79221 14.0457C9.1208 14.0028 9.42192 14.2345 9.46478 14.563C9.50764 14.8916 9.27601 15.1928 8.94742 15.2356C8.63678 15.2761 8.32022 15.297 7.99909 15.297C7.67796 15.297 7.3614 15.2761 7.05075 15.2356C6.72217 15.1928 6.49054 14.8916 6.5334 14.563Z" fill="#4E2DF1"/>
<path fill-rule="evenodd" clip-rule="evenodd" d="M11.9218 3.64208C12.2011 3.88197 12.233 4.30287 11.9932 4.58218L8.5295 8.61513C8.28962 8.89444 7.86872 8.92641 7.5894 8.68652C7.31009 8.44663 7.27812 8.02573 7.51801 7.74642L10.9817 3.71347C11.2216 3.43416 11.6424 3.40219 11.9218 3.64208Z" fill="#4E2DF1"/>
<path d="M9.37567 8.03034C9.37567 7.28356 8.77029 6.67817 8.0235 6.67817C7.27672 6.67817 6.67133 7.28356 6.67133 8.03034C6.67133 8.77712 7.27672 9.38251 8.0235 9.38251C8.77029 9.38251 9.37567 8.77712 9.37567 8.03034Z" fill="#4E2DF1"/>
</g>
<defs>
<clipPath id="clip0_661_8212">
<rect width="16" height="16" fill="white" transform="translate(0 0.03125)"/>
</clipPath>
</defs>
</svg>
