<svg width="17" height="28" viewBox="0 0 17 28" fill="none" xmlns="http://www.w3.org/2000/svg">
<path d="M13.0177 9.36266H11.6477V2.77266C11.6451 2.29608 11.4546 1.83976 11.1176 1.50277C10.7806 1.16577 10.3243 0.975282 9.84773 0.972656H6.61773C6.13942 0.972649 5.68055 1.16197 5.34139 1.49925C5.00224 1.83653 4.81038 2.29435 4.80773 2.77266V9.36266H3.42773C2.63208 9.36266 1.86902 9.67873 1.30641 10.2413C0.743805 10.8039 0.427734 11.567 0.427734 12.3627V23.1827C0.427734 23.9783 0.743805 24.7414 1.30641 25.304C1.86902 25.8666 2.63208 26.1827 3.42773 26.1827H4.01773C4.01773 26.5009 4.14416 26.8061 4.36921 27.0312C4.59425 27.2562 4.89947 27.3827 5.21773 27.3827C5.53599 27.3827 5.84122 27.2562 6.06626 27.0312C6.29131 26.8061 6.41773 26.5009 6.41773 26.1827H10.0177C10.0177 26.5009 10.1442 26.8061 10.3692 27.0312C10.5942 27.2562 10.8995 27.3827 11.2177 27.3827C11.536 27.3827 11.8412 27.2562 12.0663 27.0312C12.2913 26.8061 12.4177 26.5009 12.4177 26.1827H13.0177C13.8134 26.1827 14.5764 25.8666 15.1391 25.304C15.7017 24.7414 16.0177 23.9783 16.0177 23.1827V12.3727C16.0191 11.9778 15.9424 11.5867 15.7922 11.2215C15.6421 10.8564 15.4213 10.5245 15.1426 10.2449C14.8639 9.96523 14.5327 9.74336 14.1681 9.59197C13.8035 9.44058 13.4125 9.36265 13.0177 9.36266ZM5.22773 20.7827C5.22773 20.9418 5.16452 21.0944 5.052 21.2069C4.93948 21.3194 4.78686 21.3827 4.62773 21.3827C4.4686 21.3827 4.31599 21.3194 4.20347 21.2069C4.09095 21.0944 4.02773 20.9418 4.02773 20.7827V14.7827C4.02773 14.6235 4.09095 14.4709 4.20347 14.3584C4.31599 14.2459 4.4686 14.1827 4.62773 14.1827C4.78686 14.1827 4.93948 14.2459 5.052 14.3584C5.16452 14.4709 5.22773 14.6235 5.22773 14.7827V20.7827ZM8.82773 21.9827C8.82773 22.1418 8.76452 22.2944 8.652 22.4069C8.53948 22.5194 8.38686 22.5827 8.22773 22.5827C8.0686 22.5827 7.91599 22.5194 7.80347 22.4069C7.69095 22.2944 7.62773 22.1418 7.62773 21.9827V13.5727C7.62773 13.4135 7.69095 13.2609 7.80347 13.1484C7.91599 13.0359 8.0686 12.9727 8.22773 12.9727C8.38686 12.9727 8.53948 13.0359 8.652 13.1484C8.76452 13.2609 8.82773 13.4135 8.82773 13.5727V21.9827ZM6.01773 9.36266V2.77266C6.01773 2.61353 6.08095 2.46091 6.19347 2.34839C6.30599 2.23587 6.4586 2.17266 6.61773 2.17266H9.84773C9.92653 2.17266 10.0045 2.18818 10.0773 2.21833C10.1501 2.24848 10.2163 2.29268 10.272 2.34839C10.3277 2.40411 10.3719 2.47025 10.4021 2.54305C10.4322 2.61584 10.4477 2.69386 10.4477 2.77266V9.36266H6.01773ZM12.4377 20.7827C12.4377 20.9418 12.3745 21.0944 12.262 21.2069C12.1495 21.3194 11.9969 21.3827 11.8377 21.3827C11.6786 21.3827 11.526 21.3194 11.4135 21.2069C11.3009 21.0944 11.2377 20.9418 11.2377 20.7827V14.7827C11.2377 14.6235 11.3009 14.4709 11.4135 14.3584C11.526 14.2459 11.6786 14.1827 11.8377 14.1827C11.9969 14.1827 12.1495 14.2459 12.262 14.3584C12.3745 14.4709 12.4377 14.6235 12.4377 14.7827V20.7827Z" fill="#352B67"/>
</svg>
