<svg width="19" height="26" viewBox="0 0 19 26" fill="none" xmlns="http://www.w3.org/2000/svg">
<path d="M11.8934 8.20312H10.4934V1.70312H11.3934C11.6934 1.70312 11.8934 1.50313 11.8934 1.20312C11.8934 0.903125 11.5934 0.703125 11.3934 0.703125H2.99336C2.79336 0.703125 2.59336 0.903125 2.59336 1.20312C2.59336 1.50313 2.79336 1.70312 2.99336 1.70312H3.89336V8.20312H2.49336C1.49336 8.20312 0.693359 9.20312 0.693359 10.4031V11.6031V13.7031V19.0031V23.2031C0.693359 23.5031 0.893359 23.7031 1.19336 23.7031H1.69336V24.9031C1.69336 25.3031 1.99336 25.7031 2.49336 25.7031H3.69336C4.09336 25.7031 4.49336 25.3031 4.49336 24.9031V23.7031H10.0934V24.9031C10.0934 25.3031 10.3934 25.7031 10.8934 25.7031H12.1934C12.5934 25.7031 12.9934 25.3031 12.9934 24.9031V23.7031H13.4934C13.7934 23.7031 13.9934 23.5031 13.9934 23.2031V19.0031V13.7031V11.6031V10.4031C13.6934 9.20312 12.8934 8.20312 11.8934 8.20312ZM4.89336 1.70312H9.49336V8.20312H4.89336V1.70312ZM3.49336 24.7031H2.59336V23.7031H3.49336V24.7031ZM11.7934 24.7031H10.8934V23.7031H11.7934V24.7031ZM12.7934 11.6031V13.2031V14.2031V19.0031V20.5031V22.7031H12.2934H10.4934H5.89336H3.99336H2.09336H1.59336V19.0031V14.2031V13.2031V12.0031V11.6031V10.4031C1.59336 9.80312 1.99336 9.20312 2.49336 9.20312H4.39336H9.99336H11.8934C12.3934 9.20312 12.7934 9.70312 12.7934 10.4031V11.6031Z" fill="#342C5D"/>
<g clip-path="url(#clip0_409_14592)">
<path d="M13.1927 20.7878C15.724 20.7878 17.776 18.7357 17.776 16.2044C17.776 13.6731 15.724 11.6211 13.1927 11.6211C10.6614 11.6211 8.60938 13.6731 8.60938 16.2044C8.60938 18.7357 10.6614 20.7878 13.1927 20.7878Z" fill="#4E2DF1" stroke="#4E2DF1" stroke-width="0.916667" stroke-linecap="round" stroke-linejoin="round"/>
<path d="M13.1934 14.3711V18.0378" stroke="#EDEDED" stroke-width="0.916667" stroke-linecap="round" stroke-linejoin="round"/>
<path d="M11.3594 16.2031H15.026" stroke="#EDEDED" stroke-width="0.916667" stroke-linecap="round" stroke-linejoin="round"/>
</g>
<defs>
<clipPath id="clip0_409_14592">
<rect width="11" height="11" fill="white" transform="translate(7.69336 10.7031)"/>
</clipPath>
</defs>
</svg>
