<svg width="24" height="25" viewBox="0 0 24 25" fill="none" xmlns="http://www.w3.org/2000/svg">
<g clip-path="url(#clip0_551_10576)">
<path d="M12 17.6797C14.7614 17.6797 17 15.4411 17 12.6797C17 9.91826 14.7614 7.67969 12 7.67969C9.23858 7.67969 7 9.91826 7 12.6797C7 15.4411 9.23858 17.6797 12 17.6797Z" stroke="#FFD84E" stroke-width="2" stroke-linecap="round" stroke-linejoin="round"/>
<path d="M12 1.67969V3.67969" stroke="#FFD84E" stroke-width="2" stroke-linecap="round" stroke-linejoin="round"/>
<path d="M12 21.6797V23.6797" stroke="#FFD84E" stroke-width="2" stroke-linecap="round" stroke-linejoin="round"/>
<path d="M4.21973 4.90039L5.63973 6.32039" stroke="#FFD84E" stroke-width="2" stroke-linecap="round" stroke-linejoin="round"/>
<path d="M18.3604 19.0391L19.7804 20.4591" stroke="#FFD84E" stroke-width="2" stroke-linecap="round" stroke-linejoin="round"/>
<path d="M1 12.6797H3" stroke="#FFD84E" stroke-width="2" stroke-linecap="round" stroke-linejoin="round"/>
<path d="M21 12.6797H23" stroke="#FFD84E" stroke-width="2" stroke-linecap="round" stroke-linejoin="round"/>
<path d="M4.21973 20.4591L5.63973 19.0391" stroke="#FFD84E" stroke-width="2" stroke-linecap="round" stroke-linejoin="round"/>
<path d="M18.3604 6.32039L19.7804 4.90039" stroke="#FFD84E" stroke-width="2" stroke-linecap="round" stroke-linejoin="round"/>
</g>
<defs>
<clipPath id="clip0_551_10576">
<rect width="24" height="24" fill="white" transform="translate(0 0.679688)"/>
</clipPath>
</defs>
</svg>
