<svg width="18" height="20" viewBox="0 0 18 20" fill="none" xmlns="http://www.w3.org/2000/svg">
<path d="M16.4728 2.05375C16.1728 2.75375 15.3728 2.95375 14.7728 2.65375C14.0728 2.35375 13.8728 1.55375 14.1728 0.95375C14.4728 0.25375 15.2728 0.05375 15.8728 0.35375C16.4728 0.55375 16.7728 1.35375 16.4728 2.05375ZM3.47282 18.1537C3.17282 18.0537 2.77282 18.1537 2.67282 18.4537C2.57282 18.7537 2.67282 19.1537 2.97282 19.2537C3.27282 19.3538 3.67282 19.2537 3.77282 18.9537C3.97282 18.6537 3.77282 18.2537 3.47282 18.1537ZM16.9728 8.15375L14.4728 6.95375L15.1728 5.35375C15.5728 4.55375 15.1728 3.55375 14.3728 3.25375C13.7728 2.95375 13.0728 3.05375 12.6728 3.45375L7.47282 7.85375C7.37282 7.95375 7.27282 8.05375 7.27282 8.15375L5.47282 11.9538L3.67282 11.1538C3.47282 11.0538 3.27282 11.1538 3.17282 11.3538L0.472824 16.9537C0.372824 17.1537 0.472824 17.3537 0.672824 17.4537L2.27282 18.2537C2.47282 17.8538 2.77282 17.6537 3.17282 17.6537C3.27282 17.6537 3.47282 17.6537 3.57282 17.7537L5.57282 13.5538L7.57282 9.15375C7.97282 9.35375 8.27282 9.25375 8.47282 9.05375L10.8728 7.05375L9.07282 10.8538L5.77282 17.8538C5.57282 18.3538 5.77282 18.9537 6.27282 19.1537C6.77282 19.3538 7.37282 19.1537 7.57282 18.6537L10.7728 11.8538L13.9728 18.7537C14.1728 19.2537 14.7728 19.4538 15.2728 19.2537C15.7728 19.0537 15.9728 18.4537 15.7728 17.9537L12.4728 10.9538L13.6728 8.35375L16.1728 9.55375C16.5728 9.75375 17.0728 9.55375 17.2728 9.15375C17.5728 8.75375 17.3728 8.35375 16.9728 8.15375Z" fill="#4E2DF1"/>
</svg>
