<svg width="14" height="15" viewBox="0 0 14 15" fill="none" xmlns="http://www.w3.org/2000/svg">
<path fill-rule="evenodd" clip-rule="evenodd" d="M6.97351 2.01718C5.63662 2.01718 4.55286 3.10094 4.55286 4.43782C4.55286 5.77471 5.63662 6.85847 6.97351 6.85847C8.31039 6.85847 9.39416 5.77471 9.39416 4.43782C9.39416 3.10094 8.31039 2.01718 6.97351 2.01718ZM3.52592 4.43782C3.52592 2.53377 5.06946 0.990234 6.97351 0.990234C8.87756 0.990234 10.4211 2.53377 10.4211 4.43782C10.4211 6.34188 8.87756 7.88542 6.97351 7.88542C5.06946 7.88542 3.52592 6.34188 3.52592 4.43782ZM1.60157 10.0903C2.24812 9.44375 3.12503 9.08052 4.03939 9.08052H9.90763C10.822 9.08052 11.6989 9.44375 12.3454 10.0903C12.992 10.7368 13.3552 11.6138 13.3552 12.5281V13.9952C13.3552 14.2788 13.1253 14.5086 12.8417 14.5086C12.5582 14.5086 12.3283 14.2788 12.3283 13.9952V12.5281C12.3283 11.8861 12.0732 11.2704 11.6193 10.8165C11.1653 10.3625 10.5496 10.1075 9.90763 10.1075H4.03939C3.39739 10.1075 2.78169 10.3625 2.32773 10.8165C1.87377 11.2704 1.61874 11.8861 1.61874 12.5281V13.9952C1.61874 14.2788 1.38885 14.5086 1.10527 14.5086C0.821686 14.5086 0.591797 14.2788 0.591797 13.9952V12.5281C0.591797 11.6138 0.955024 10.7368 1.60157 10.0903Z" fill="#888888" stroke="#888888" stroke-width="0.4" stroke-linecap="round" stroke-linejoin="round"/>
</svg>
