<svg width="23" height="24" viewBox="0 0 23 24" fill="none" xmlns="http://www.w3.org/2000/svg">
<path d="M11.5 23.6621C17.8513 23.6621 23 18.5134 23 12.1621C23 5.81083 17.8513 0.662109 11.5 0.662109C5.14873 0.662109 0 5.81083 0 12.1621C0 18.5134 5.14873 23.6621 11.5 23.6621Z" fill="#4E2DF1"/>
<path d="M10.907 9.78921C10.3134 9.9376 9.79408 10.3086 9.42311 10.9021C9.05215 11.4215 8.97795 12.0892 9.12634 12.6828C9.34892 13.5731 10.0167 14.2408 10.8328 14.4634C11.0554 14.5376 11.5747 14.6118 12.0941 14.4634C12.6876 14.315 13.207 13.9441 13.5038 13.4247C13.8747 12.9053 13.9489 12.2376 13.8005 11.6441C13.578 10.8279 13.0586 10.2344 12.2425 9.9376C11.7231 9.71502 11.2038 9.78921 10.907 9.78921ZM11.5005 10.457C11.9457 10.457 12.3909 10.6053 12.6876 10.9763C12.9844 11.2731 13.207 11.7182 13.207 12.1634C13.207 12.6086 13.0586 13.0537 12.6876 13.3505C12.3909 13.6473 11.9457 13.8699 11.5005 13.8699C10.536 13.8699 9.79408 13.1279 9.79408 12.1634C9.79408 11.7182 9.94247 11.2731 10.3134 10.9763C10.6102 10.6795 11.0554 10.457 11.5005 10.457Z" fill="white"/>
<path d="M17.7321 11.9403C17.7321 11.9403 17.6579 11.8661 17.7321 11.9403L15.6546 10.1596C14.4675 9.12092 12.9837 8.60156 11.4998 8.60156C10.0159 8.60156 8.53207 9.12092 7.34497 10.1596L5.34175 11.8661C5.26755 11.9403 5.19336 12.0145 5.19336 12.1629C5.19336 12.237 5.19336 12.3854 5.26755 12.4596C5.26755 12.4596 5.26755 12.4596 5.34175 12.5338L7.34497 14.2403C9.71916 16.2435 13.2063 16.2435 15.6546 14.2403L17.6579 12.5338C17.7321 12.4596 17.8063 12.3854 17.8063 12.3112C17.8063 12.0887 17.8063 12.0145 17.7321 11.9403ZM15.2095 13.5725C14.9869 13.7951 14.6901 13.9435 14.4675 14.0919C14.3934 14.1661 14.3192 14.1661 14.245 14.2403H14.1708C11.574 15.6499 9.274 14.3887 9.274 14.3887C8.75465 14.1661 8.23529 13.8693 7.79013 13.4983L6.08368 12.0887L7.79013 10.679C8.38368 10.1596 9.05142 9.78866 9.71916 9.56608C9.71916 9.56608 9.94174 9.49189 10.3869 9.41769C11.1288 9.2693 12.2417 9.19511 13.3546 9.64027C14.0224 9.86285 14.6159 10.2338 15.1353 10.679L16.8417 12.0887L15.2095 13.5725Z" fill="white"/>
</svg>
