<svg width="12" height="8" viewBox="0 0 12 8" fill="none" xmlns="http://www.w3.org/2000/svg">
<path d="M6.21733 0.660156C8.01733 0.660156 9.51733 1.26016 11.0173 2.26016C11.1173 2.36016 11.2173 2.46016 11.4173 2.56016C11.7173 2.76016 11.7173 3.16016 11.5173 3.46016C11.3173 3.66016 10.9173 3.76016 10.6173 3.56016C10.0173 3.16016 9.31733 2.76016 8.51733 2.46016C6.51733 1.76016 4.51733 1.96016 2.61733 2.96016C2.31733 3.16016 1.91733 3.36016 1.61733 3.56016C1.31733 3.76016 0.917333 3.66016 0.717333 3.36016C0.517333 3.06016 0.617333 2.76016 0.917333 2.56016C2.01733 1.66016 3.31733 1.06016 4.61733 0.760156C5.21733 0.660156 5.71733 0.660156 6.21733 0.660156Z" fill="#8C87A8"/>
<path d="M6.11641 3.35938C7.31641 3.35938 8.31641 3.75937 9.21641 4.35938C9.41641 4.45938 9.51641 4.55937 9.61641 4.65937C9.91641 4.85938 9.91641 5.15938 9.71641 5.45938C9.61641 5.75938 9.31641 5.75938 9.01641 5.55938C7.01641 4.35938 5.11641 4.35938 3.11641 5.55938C2.81641 5.75938 2.51641 5.75938 2.41641 5.45938C2.31641 5.15938 2.21641 4.85938 2.51641 4.65937C3.21641 4.15937 4.01641 3.65937 4.91641 3.45937C5.31641 3.45937 5.71641 3.35938 6.11641 3.35938Z" fill="#8C87A8"/>
<path d="M6.21775 5.96094C6.81775 5.96094 7.41775 6.26094 8.01775 6.76094C8.21775 6.96094 8.21775 7.16094 8.11775 7.36094C8.01775 7.56094 7.81775 7.66094 7.51775 7.56094C7.31775 7.46094 7.21775 7.46094 7.01775 7.36094C6.41775 7.06094 5.81775 7.16094 5.11775 7.36094C5.01775 7.46094 4.81775 7.46094 4.71775 7.56094C4.41775 7.66094 4.21775 7.56094 4.01775 7.36094C3.91775 7.16094 4.01775 6.86094 4.21775 6.76094C4.71775 6.26094 5.31775 5.96094 6.21775 5.96094Z" fill="#8C87A8"/>
</svg>
